<svg id="Layer_1" data-name="Layer 1" xmlns="http://www.w3.org/2000/svg" xmlns:xlink="http://www.w3.org/1999/xlink" viewBox="0 0 3297.87 1062.2"><defs><style>.cls-1{fill:none;}.cls-2{fill:#fff;}.cls-3{opacity:0.6;}.cls-4{clip-path:url(#clip-path);}.cls-5{fill:#010101;}.cls-6{opacity:0.45;}.cls-7{clip-path:url(#clip-path-2);}.cls-8{opacity:0.8;}.cls-9{clip-path:url(#clip-path-3);}.cls-10{clip-path:url(#clip-path-4);}.cls-11{clip-path:url(#clip-path-5);}</style><clipPath id="clip-path" transform="translate(2155.41 1464.79)"><rect class="cls-1" x="-2155.41" y="-1072.06" width="652.03" height="340.95"/></clipPath><clipPath id="clip-path-2" transform="translate(2155.41 1464.79)"><rect class="cls-1" x="-2155.41" y="-1464.79" width="326.08" height="733.68"/></clipPath><clipPath id="clip-path-3" transform="translate(2155.41 1464.79)"><rect class="cls-1" x="-1829.33" y="-1464.79" width="326.08" height="733.68"/></clipPath><clipPath id="clip-path-4" transform="translate(2155.41 1464.79)"><rect class="cls-1" x="-2155.41" y="-861.98" width="326.08" height="459.38"/></clipPath><clipPath id="clip-path-5" transform="translate(2155.41 1464.79)"><rect class="cls-1" x="-1829.33" y="-861.98" width="326.21" height="459.38"/></clipPath></defs><path class="cls-2" d="M-1131.39-854a10.12,10.12,0,0,1-10.13,10H-1336.6c4.87,48.19,41.14,92.16,92.16,92.16,34.86,0,60.75-13.33,80.24-41.15,2.82-3.84,7-6.28,12.43-4a9.37,9.37,0,0,1,5.51,7,9.84,9.84,0,0,1-1.28,6.79c-19.61,34.22-58.7,51-97,51-65.63,0-112.41-58.71-112.41-121.52s46.78-121.51,112.41-121.51,113,58.45,113.18,121.13m-20.89-9.49c-4.23-48.19-41.15-92.15-92.16-92.15s-87.29,44-92.16,92.15Zm257.63-106.9a9.91,9.91,0,0,1,9.74,9.75,9.5,9.5,0,0,1-9.74,9.74h-52.29v205.21a10,10,0,0,1-9.75,9.74,9.91,9.91,0,0,1-9.74-9.74V-950.93h-50.24a9.5,9.5,0,0,1-9.74-9.74,10,10,0,0,1,9.74-9.75h50.24v-75.11c0-4.74,3.21-9.1,7.82-9.87,6.54-1,11.67,3.46,11.67,9.62v75.37h52.29Zm319,99.21v124.33a9.91,9.91,0,0,1-9.74,9.75,9.5,9.5,0,0,1-9.74-9.75V-871.21c0-41.91-23.71-83.82-70.5-83.82-60,0-85.87,52.42-82.41,106.13,0,1.41.64,7.69.64,8.33v93.31c0,4.74-3.21,9.1-7.82,9.87-6.54,1-11.67-3.46-11.67-9.61v-408.37a10,10,0,0,1,9.75-9.74,9.9,9.9,0,0,1,9.74,9.74v231.1c16.79-30,46.78-50.25,81.65-50.25,57.29,0,90.1,50.25,90.1,103.31M-225.82-854a10.13,10.13,0,0,1-10.13,10H-431.16c4.87,48.19,41.14,92.16,92.16,92.16,34.86,0,60.75-13.33,80.24-41.15,2.82-3.84,7-6.28,12.43-4a9.37,9.37,0,0,1,5.51,7,9.84,9.84,0,0,1-1.28,6.79c-19.61,34.22-58.71,51-97,51-65.63,0-112.41-58.71-112.41-121.52s46.78-121.51,112.41-121.51S-225.95-916.71-225.82-854m-21-9.49c-4.23-48.19-41.15-92.15-92.16-92.15s-87.29,44-92.16,92.15ZM13.61-961.31c0,6.28-3.46,9.74-9.1,10.51-57.3,8.33-83.06,55.11-83.06,109.59v93.31c0,4.74-3.2,9.1-7.82,9.87C-92.9-737-98-741.49-98-747.64V-960.29c0-4.74,3.2-9.1,7.82-9.87,6.53-1,11.66,3.46,11.66,9.61v43.33c16-27.18,48.2-53.07,81.65-53.07,4.87-.12,10.51,3.46,10.51,9M334.05-854a10.12,10.12,0,0,1-10.13,10H128.84c4.87,48.19,41.15,92.16,92.16,92.16,34.86,0,60.76-13.33,80.24-41.15,2.82-3.84,7.05-6.28,12.43-4a9.37,9.37,0,0,1,5.51,7,9.78,9.78,0,0,1-1.28,6.79c-19.61,34.22-58.7,51-97,51-65.62,0-112.41-58.71-112.41-121.52s46.79-121.51,112.41-121.51S333.92-916.71,334.05-854m-20.89-9.49C308.93-911.71,272-955.67,221-955.67s-87.29,44-92.16,92.15ZM649-958.88v213.16a9.9,9.9,0,0,1-9.74,9.74,9.5,9.5,0,0,1-9.74-9.74v-40.51c-16,32.18-44.74,55.12-81,55.12-57.94,0-90.11-50.24-90.11-103.31v-125a10,10,0,0,1,9.74-9.74,9.9,9.9,0,0,1,9.74,9.74v125c0,41.91,23.72,83.83,70.5,83.83,65.63,0,81-61.4,81-129.2v-79.6c0-5.64,5.64-11.41,12.56-9.36a10.48,10.48,0,0,1,7.05,9.87M1142.46-872v125a9.9,9.9,0,0,1-9.74,9.74A9.5,9.5,0,0,1,1123-747V-872c0-41.91-23.72-83-70.5-83-58.71,0-81,62.8-81,111.64V-747a9.9,9.9,0,0,1-9.74,9.74A9.5,9.5,0,0,1,952-747V-872c0-41.91-23.71-83-70.5-83-59.34,0-83.82,46.78-81.65,108.95,0,1.41.65,4.23,0,4.87v94a9.81,9.81,0,0,1-7.94,9.87c-6.54,1-11.67-3.46-11.67-9.61V-960.29c0-4.74,3.21-9.1,7.82-9.87,6.54-1,11.67,3.46,11.67,9.61v35.64c16.79-30,46.78-49.61,81.64-49.61,39.74,0,70.5,25.13,83.06,62.17,16-36.27,47.43-62.17,87.93-62.17,57.3,0,90.11,49.48,90.11,102.54" transform="translate(2155.41 1464.79)"/><g class="cls-3"><g class="cls-4"><path class="cls-5" d="M-1829.33-1072.06l-326.08,148.3,326.08,192.65,325.95-192.65Z" transform="translate(2155.41 1464.79)"/></g></g><g class="cls-6"><g class="cls-7"><path class="cls-2" d="M-2155.41-923.76l326.08,192.65v-733.68Z" transform="translate(2155.41 1464.79)"/></g></g><g class="cls-8"><g class="cls-9"><path class="cls-2" d="M-1829.33-1464.79v733.68l325.95-192.65Z" transform="translate(2155.41 1464.79)"/></g></g><g class="cls-6"><g class="cls-10"><path class="cls-2" d="M-2155.41-862l326.08,459.39V-669.33Z" transform="translate(2155.41 1464.79)"/></g></g><g class="cls-8"><g class="cls-11"><path class="cls-2" d="M-1829.33-669.33v266.74L-1503.12-862Z" transform="translate(2155.41 1464.79)"/></g></g></svg>