<svg id="Calque_1" data-name="Calque 1" xmlns="http://www.w3.org/2000/svg" viewBox="0 0 500 500"><defs><style>.cls-1{fill:#fff;}.cls-2{fill:#36a9e1;stroke:#39a8e0;stroke-miterlimit:10;stroke-width:3px;}</style></defs><rect class="cls-1" width="500" height="500" rx="147.06"/><path class="cls-2" d="M277.53,340.64c-44.22,13.42-89.43.48-112.74-30.39,0,0,0,0,0-.05-.32-.41-.62-.82-.93-1.25-18.91-26.16-27.67-72-2.28-100,.62-.68,1.26-1.35,1.91-2s1.33-1.29,2-1.91a60.2,60.2,0,0,1,29.3-14.35c-1.68,24.16,6.72,49.37,20.23,66.85,19.4,25.11,52.41,38.17,87,35.32a121.7,121.7,0,0,1-5.32,28.74,118.93,118.93,0,0,0,7.69-28.95,118.67,118.67,0,0,0,31.57-7.78,121.27,121.27,0,0,1-31.26,5.21c3.94-35.67-9.07-70-34.84-90-16.68-12.93-40.45-21.17-63.6-20.41A59.47,59.47,0,0,1,220,153.17c.62-.68,1.26-1.35,1.91-2s1.33-1.29,2-1.91c28-25.38,73.86-16.69,100,2.29l1.27.93h0c30.94,23.4,43.75,68.93,29.93,113.33,18.49-45.69,6.52-95.67-26.84-121.52-29.76-23.06-82.05-31.2-113.24,0a69.15,69.15,0,0,0-18.92,36.3c-14.53,2.22-28.35,8.34-39.49,19.48-31.2,31.2-23,83.46,0,113.24C182.34,346.61,232,358.72,277.53,340.64Zm-12-133.32c.43.3.85.61,1.27.93h0c23.59,17.85,36.65,48.58,35.37,81.86-32.15.35-61.6-12.69-78.93-35.65l0-.05c-.31-.41-.61-.82-.92-1.25-11.95-16.53-19.85-40.94-17.64-63.73C226.56,188.11,249.64,195.82,265.48,207.32Z"/></svg>